Coordinates
version=1
nRows=12
nColumns=24
inDegrees=yes

Units are S.I. units (second, meters, Newtons, ...)
Angles are in degrees.

endheader
time	pelvis_tilt	pelvis_list	pelvis_rotation	pelvis_tx	pelvis_ty	pelvis_tz	hip_flexion_r	hip_adduction_r	hip_rotation_r	knee_angle_r	ankle_angle_r	subtalar_angle_r	mtp_angle_r	hip_flexion_l	hip_adduction_l	hip_rotation_l	knee_angle_l	ankle_angle_l	subtalar_angle_l	mtp_angle_l	lumbar_extension	lumbar_bending	lumbar_rotation
      3.91000000	     61.57465734	     -0.88236626	     -2.00907718	      0.65125418	      1.01503217	     -0.20476433	      9.87728700	     -0.50163492	     10.08423619	    -16.59607672	    -20.30042892	     20.00724159	     47.88995644	     -5.07281329	     -9.90071217	      3.44681760	    -54.30279786	     16.61166581	     37.79510951	     25.92318196	      0.00000000	      0.00000000	      0.00000000
      3.92000000	     61.58124747	     -0.87632587	     -2.00368195	      0.65127618	      1.01503806	     -0.20479257	      9.88538721	     -0.51042450	     10.05580611	    -16.62276529	    -20.29396901	     20.02769416	     47.86419306	     -5.09180563	     -9.90889942	      3.43651471	    -54.30545845	     16.64069712	     37.80432402	     25.90831134	      0.00000000	      0.00000000	      0.00000000
      3.93000000	     61.56990564	     -0.87181499	     -1.99603038	      0.65126019	      1.01501812	     -0.20482694	      9.88909956	     -0.51855146	     10.05542689	    -16.60626103	    -20.29600055	     20.04140849	     47.84360073	     -5.08460545	     -9.92081025	      3.43249428	    -54.31164083	     16.66289334	     37.81798375	     25.89579490	      0.00000000	      0.00000000	      0.00000000
      3.94000000	     61.54415311	     -0.87065646	     -1.98657233	      0.65123106	      1.01498663	     -0.20484933	      9.88568898	     -0.52345126	     10.08158022	    -16.54976407	    -20.30553666	     20.04671755	     47.83469105	     -5.05636674	     -9.93951330	      3.43273694	    -54.32148436	     16.67466268	     37.84061168	     25.88595059	      0.00000000	      0.00000000	      0.00000000
      3.95000000	     61.51038713	     -0.87303421	     -1.97647661	      0.65119920	      1.01494963	     -0.20486521	      9.87589813	     -0.52413103	     10.12562388	    -16.46678125	    -20.32161925	     20.04264538	     47.84471556	     -5.01766888	     -9.96589405	      3.43497191	    -54.33439526	     16.67424672	     37.87460866	     25.87870624	      0.00000000	      0.00000000	      0.00000000
      3.96000000	     61.47678671	     -0.87825113	     -1.96709691	      0.65117799	      1.01492132	     -0.20487719	      9.86296565	     -0.52125624	     10.17502041	    -16.37627162	    -20.34406721	     20.02891113	     47.88084441	     -4.98095886	     -9.99895328	      3.43726173	    -54.34916894	     16.66217402	     37.91951332	     25.87360516	      0.00000000	      0.00000000	      0.00000000
      3.97000000	     61.45091211	     -0.88525852	     -1.95930679	      0.65117931	      1.01491141	     -0.20487712	      9.85023211	     -0.51655215	     10.21763592	    -16.29633156	    -20.37409012	     20.00586393	     47.94915807	     -4.95649226	    -10.03665075	      3.43839104	    -54.36417090	     16.64125795	     37.97181820	     25.86986884	      0.00000000	      0.00000000	      0.00000000
      3.98000000	     61.43729300	     -0.89273140	     -1.95311099	      0.65119357	      1.01491051	     -0.20486683	      9.83904622	     -0.51175018	     10.24517963	    -16.23883028	    -20.41455297	     19.97442354	     48.05358938	     -4.94946640	    -10.07685143	      3.43790304	    -54.37768643	     16.61609184	     38.02544776	     25.86651181	      0.00000000	      0.00000000	      0.00000000
      3.99000000	     61.43666645	     -0.89944430	     -1.94779362	      0.65120520	      1.01491065	     -0.20485900	      9.82866915	     -0.50809505	     10.25444948	    -16.20672366	    -20.46969357	     19.93605815	     48.19498197	     -4.95942334	    -10.11796236	      3.43582965	    -54.38841879	     16.59211706	     38.07285244	     25.86249177	      0.00000000	      0.00000000	      0.00000000
      4.00000000	     61.44646912	     -0.90483011	     -1.94252396	      0.65120920	      1.01491464	     -0.20486281	      9.81756425	     -0.50640564	     10.24644560	    -16.19462805	    -20.54417087	     19.89276634	     48.37042959	     -4.98182569	    -10.15906083	      3.43228143	    -54.39593185	     16.57449401	     38.10650053	     25.85687315	      0.00000000	      0.00000000	      0.00000000
      4.01000000	     61.46209707	     -0.90913111	     -1.93709874	      0.65120722	      1.01492265	     -0.20487709	      9.80493752	     -0.50717430	     10.22439838	    -16.19189107	    -20.64149766	     19.84699880	     48.57302187	     -5.01069107	    -10.19969429	      3.42715463	    -54.40079415	     16.56709873	     38.12041698	     25.84898454	      0.00000000	      0.00000000	      0.00000000
      4.02000000	     61.47882810	     -0.91298858	     -1.93229931	      0.65119856	      1.01492539	     -0.20489476	      9.79190844	     -0.51046597	     10.19201333	    -16.18663122	    -20.76215656	     19.80147623	     48.79206566	     -5.04100088	    -10.23965110	      3.42018564	    -54.40434655	     16.57188260	     38.11142523	     25.83855003	      0.00000000	      0.00000000	      0.00000000
